<svg xmlns="http://www.w3.org/2000/svg" viewBox="0 0 169.87 198.89"><defs><style>.cls-1{fill:#bf6952;}.cls-2{fill:#854836;}.cls-3{fill:#aa8dd8;}.cls-4{fill:#ffac33;}.cls-5{fill:#ffcc4d;}.cls-6{fill:#f2e7fe;}.cls-7{fill:#3700b3;}.cls-8{fill:#23036a;}</style></defs><g id="Layer_2" data-name="Layer 2"><g id="Layer_1-2" data-name="Layer 1"><path class="cls-1" d="M144.55,158.89l-118.67.42-9.12,26.74a7.08,7.08,0,0,0-.4,3.22,11.28,11.28,0,0,0,11.15,9.62H143.06a11.28,11.28,0,0,0,11.16-9.62,7,7,0,0,0-.41-3.22Z"/><path class="cls-2" d="M144.82,158.54l-1-3.09a8.14,8.14,0,0,0-7.72-5.56H34.53a8.14,8.14,0,0,0-7.72,5.56L25.61,159a94.85,94.85,0,0,0,119.21-.42Z"/><path class="cls-3" d="M84.93,169.87A84.94,84.94,0,1,0,0,84.93,84.94,84.94,0,0,0,84.93,169.87Z"/><path class="cls-4" d="M14.56,126.81,22,129.56l2.77,9.07a.84.84,0,0,0,.8.59.83.83,0,0,0,.79-.59l2.77-9.07,7.42-2.75a.83.83,0,0,0,0-1.56l-7.41-2.75-2.77-9.35a.84.84,0,0,0-.8-.59.83.83,0,0,0-.8.59L22,122.5l-7.42,2.75a.83.83,0,0,0,0,1.56Z"/><path class="cls-5" d="M31.22,117.64l1.93.72.75,2.75a.84.84,0,0,0,1.61,0l.75-2.75,1.93-.72a.83.83,0,0,0,0-1.56l-1.92-.71-.76-3a.83.83,0,0,0-1.61,0l-.76,3-1.92.71a.83.83,0,0,0,0,1.56Zm3.62,18.06,2,.73.73,2a.83.83,0,0,0,1.56,0l.73-2,2-.73a.84.84,0,0,0,.54-.79.83.83,0,0,0-.54-.78l-2-.73-.73-2a.83.83,0,0,0-1.56,0l-.73,2-2,.73a.84.84,0,0,0-.55.78A.85.85,0,0,0,34.84,135.7Z"/><path class="cls-6" d="M123.09,103.89h-70l-7-42h84Z"/><path class="cls-7" d="M129.69,120.89H53.48a7,7,0,1,1-.08-14h69.37a3.5,3.5,0,0,0,3.46-2.93l7-42a3.51,3.51,0,0,0-2-3.75,3.45,3.45,0,0,0-1.55-.32H49.22L45.65,36.75A3.37,3.37,0,0,0,42.42,34c-.05,0-.09-.07-.14-.07H25.66a3.5,3.5,0,1,0-.05,7H39.28l10.1,59.91a13.83,13.83,0,0,0-9.67,15.84,14.06,14.06,0,0,0,13.93,11.25h75.91a3.6,3.6,0,0,0,3.58-2.83A3.5,3.5,0,0,0,129.69,120.89Zm-7.46-35H110.66l1-7H123.4Zm-18.82,0H91.18v-7h13.18Zm-19.23,0H72l-1-7H84.18Zm-18.65,0H54l-1.17-7H64.58Zm-9.26,14-1.16-7H66.47l1,7Zm17.59,0-1-7H84.18v7Zm17.32,0v-7h11.27l-1,7Zm17.58,0,1-7h11.36l-1.16,7Zm16.95-35-1.16,7h-12l1-7Zm-19.43,0-1,7H91.18v-7Zm-22.1,0v7H70l-1-7Zm-21.5,0,1,7h-12l-1.17-7Z"/><path class="cls-6" d="M63.79,144.94a10.42,10.42,0,1,0-10.42-10.41A10.42,10.42,0,0,0,63.79,144.94Z"/><path class="cls-8" d="M63.79,148.42a13.89,13.89,0,1,1,13.89-13.89A13.9,13.9,0,0,1,63.79,148.42Zm0-20.84a6.95,6.95,0,1,0,6.94,7A7,7,0,0,0,63.79,127.58Z"/><path class="cls-6" d="M112.4,144.94A10.42,10.42,0,1,0,102,134.53,10.42,10.42,0,0,0,112.4,144.94Z"/><path class="cls-8" d="M112.4,148.42a13.89,13.89,0,1,1,13.89-13.89A13.9,13.9,0,0,1,112.4,148.42Zm0-20.84a6.95,6.95,0,1,0,6.94,7A7,7,0,0,0,112.4,127.58Z"/><path class="cls-4" d="M159.8,48l-7.42-2.75-2.77-9.07a.83.83,0,0,0-.79-.59.84.84,0,0,0-.8.59l-2.77,9.07L137.84,48a.83.83,0,0,0,0,1.56l7.41,2.74L148,61.63a.83.83,0,0,0,.8.59.84.84,0,0,0,.8-.59l2.77-9.36,7.41-2.74a.83.83,0,0,0,0-1.56Z"/><path class="cls-5" d="M143.13,57.13l-1.93-.71-.75-2.75a.82.82,0,0,0-.8-.61.83.83,0,0,0-.8.61l-.75,2.75-1.93.71a.84.84,0,0,0,0,1.57l1.92.71.75,3a.84.84,0,0,0,.81.63.83.83,0,0,0,.81-.64l.76-3,1.91-.71a.84.84,0,0,0,0-1.57Zm-3.61-18.05-2-.73-.73-2a.82.82,0,0,0-.78-.54.84.84,0,0,0-.79.54l-.72,2-2,.73a.83.83,0,0,0,0,1.56l2,.73.72,2a.85.85,0,0,0,.79.55.84.84,0,0,0,.78-.55l.73-2,2-.73a.83.83,0,0,0,0-1.56Z"/></g></g></svg>